/* XPM */
static char * cloud2_xpm[] = {
"64 64 186 2",
"  	c #A8E2EA",
". 	c #ABE3EB",
"+ 	c #ADE3EB",
"@ 	c #A9E2EA",
"# 	c #B4E5EC",
"$ 	c #B6E6ED",
"% 	c #E2F4F7",
"& 	c #F3FAFC",
"* 	c #D8F1F4",
"= 	c #ACE3EB",
"- 	c #C9ECF1",
"; 	c #F9FDFD",
"> 	c #FCFEFE",
", 	c #FEFFFF",
"' 	c #FFFFFF",
") 	c #FDFEFE",
"! 	c #D5F0F4",
"~ 	c #B2E5EC",
"{ 	c #C5EAF0",
"] 	c #BBE7EE",
"^ 	c #CEEDF2",
"/ 	c #E0F3F6",
"( 	c #E7F6F8",
"_ 	c #FEFEFF",
": 	c #DAF1F5",
"< 	c #AAE2EA",
"[ 	c #E5F6F8",
"} 	c #DAF7F9",
"| 	c #E0F8FA",
"1 	c #FBFEFF",
"2 	c #FDFFFF",
"3 	c #DFF8FA",
"4 	c #D2F6F8",
"5 	c #E1F9FA",
"6 	c #EDF8FA",
"7 	c #B1E5EC",
"8 	c #B0E4EC",
"9 	c #C1F0F4",
"0 	c #BDF2F5",
"a 	c #BFF2F5",
"b 	c #C6F4F6",
"c 	c #E8FAFB",
"d 	c #E5FAFB",
"e 	c #BEF2F5",
"f 	c #BBF2F5",
"g 	c #FCFEFF",
"h 	c #FBFEFE",
"i 	c #B5E6ED",
"j 	c #C1E9EF",
"k 	c #CDEDF2",
"l 	c #CCEDF2",
"m 	c #E4F5F8",
"n 	c #E3F9FA",
"o 	c #C0F3F5",
"p 	c #BCF2F5",
"q 	c #E7FAFB",
"r 	c #EDFBFC",
"s 	c #C4F4F6",
"t 	c #EFFCFC",
"u 	c #D3EFF3",
"v 	c #C0E9EF",
"w 	c #BAE7EE",
"x 	c #E3F4F7",
"y 	c #F5FBFC",
"z 	c #F4FDFD",
"A 	c #EBFBFC",
"B 	c #DCF8F9",
"C 	c #C7F4F7",
"D 	c #EEFBFC",
"E 	c #C3F3F6",
"F 	c #EFFCFD",
"G 	c #C5EBF0",
"H 	c #B9E7ED",
"I 	c #F1F9FB",
"J 	c #FAFEFE",
"K 	c #DBF7F9",
"L 	c #F8FDFE",
"M 	c #F9FEFE",
"N 	c #EAFAFB",
"O 	c #C7F4F6",
"P 	c #E9FAFB",
"Q 	c #D4F6F8",
"R 	c #CCF4F7",
"S 	c #DEF8FA",
"T 	c #F7FCFD",
"U 	c #C3EAF0",
"V 	c #F8FEFE",
"W 	c #D3F6F8",
"X 	c #E0F9FA",
"Y 	c #D9F7F9",
"Z 	c #C1F3F6",
"` 	c #C0F3F6",
" .	c #C2F3F6",
"..	c #F7FDFE",
"+.	c #D6F7F8",
"@.	c #FDFEFF",
"#.	c #D5F6F8",
"$.	c #E5F9FB",
"%.	c #F8FCFD",
"&.	c #C6EBF1",
"*.	c #E6FAFB",
"=.	c #C5F4F6",
"-.	c #D5F7F9",
";.	c #E2F9FA",
">.	c #ECFBFC",
",.	c #E4F9FB",
"'.	c #F1FCFD",
").	c #F6FDFD",
"!.	c #D6F0F4",
"~.	c #C5EFF3",
"{.	c #D8F7F9",
"].	c #C5F3F6",
"^.	c #E8FBFB",
"/.	c #BFF3F5",
"(.	c #C8F4F7",
"_.	c #D6F7F9",
":.	c #D1F5F8",
"<.	c #F8FDFD",
"[.	c #B5ECF1",
"}.	c #C4F3F6",
"|.	c #F5FDFD",
"1.	c #CDF5F7",
"2.	c #E9FAFC",
"3.	c #E6F9FB",
"4.	c #F3FCFD",
"5.	c #EFFBFC",
"6.	c #C9F4F7",
"7.	c #E5F9FA",
"8.	c #FAFDFE",
"9.	c #F1FAFB",
"0.	c #BCE8EE",
"a.	c #CCF5F7",
"b.	c #EAFBFC",
"c.	c #F3FDFD",
"d.	c #D0F6F8",
"e.	c #D5F6F9",
"f.	c #D2F5F8",
"g.	c #FCFFFF",
"h.	c #F4FBFC",
"i.	c #BFE9EF",
"j.	c #D7F7F9",
"k.	c #E7F9FB",
"l.	c #F2FCFD",
"m.	c #BEF3F5",
"n.	c #F3FAFB",
"o.	c #C8F4F6",
"p.	c #DDF7FA",
"q.	c #D6F6F8",
"r.	c #D1EEF3",
"s.	c #B2EAF0",
"t.	c #BBF1F5",
"u.	c #CBF4F7",
"v.	c #F0FCFD",
"w.	c #E9FBFC",
"x.	c #DCF2F5",
"y.	c #B2EAEF",
"z.	c #D6F6F9",
"A.	c #CAF4F7",
"B.	c #BEE8EE",
"C.	c #AFE7EE",
"D.	c #AFE8EE",
"E.	c #B1E9EF",
"F.	c #BBF1F4",
"G.	c #C1F3F5",
"H.	c #BAF1F4",
"I.	c #AEE7ED",
"J.	c #EBF7F9",
"K.	c #BAF0F4",
"L.	c #CEF5F7",
"M.	c #D0F5F7",
"N.	c #F7FDFD",
"O.	c #BFE8EF",
"P.	c #B8EFF3",
"Q.	c #B9EFF3",
"R.	c #A9E3EB",
"S.	c #B7EEF2",
"T.	c #AAE4EB",
"U.	c #B4EBF0",
"V.	c #B6EDF2",
"W.	c #B0E9EE",
"X.	c #B4ECF1",
"Y.	c #ACE5EC",
"Z.	c #B6EEF2",
"`.	c #AFE7ED",
" +	c #A9E3EA",
".+	c #B3EAF0",
"                                                                                                                                ",
"                                                                                                                                ",
"                                                                                                                                ",
"                                                                                                                                ",
"                                                                                                                                ",
"                                                                                                                                ",
"                                                                                                                                ",
"                                                                                                                                ",
"                                                                                                                                ",
"                                                                                                                                ",
"                                                                                                                                ",
"                                                                                                                                ",
"                                                                                                                                ",
"                                                                                                                                ",
"                                                                                                                                ",
"                                                                                                                                ",
"                                                                                                                                ",
"                                                                                                                                ",
"                                                                                                                                ",
"                                              . + + .                                                                           ",
"                                        @ # $ % & & * =                                                                         ",
"                                      @ - ; > , ' ' ) ! = ~ { { { ]                                                             ",
"                                    @ ^ ; ' ' ' ' ' ' ) / ( _ _ _ & : $                                                         ",
"                                    < [ } | 1 , ' ' 2 3 4 5 , ' ' ' ' 6 7                                                       ",
"                                    8 9 0 a b c , ' d e f e 3 g ' ' ' h i                                                       ",
"                    @ j k k k k k l m n o p p a q , r s p p e t ' ' ' ) u k k k k v                                             ",
"                  w x y 2 , , , , z A , r B f p C 1 , D E p 0 F ' , , , 2 , , , , y G                                           ",
"                H I ' J K L ' h M N E r ' D f p O 1 ' 2 O p 0 P Q R R R R S 2 ' ' ' T U @                                       ",
"              @ 6 ' V W a X , Y Z ` p  ...D f 0 +.@.' 2 #.0 p o 0 p p p p 0 $.' ' ' ' %.G                                       ",
"              &.T ' *.p =.h , -.f p p 0 ;.>.f e 3 ,.'., ).` p p p p p p p f n ' ' ' ' ' %.!.! ! ! {                             ",
"            @ ~.{.g *.p ].h , -.f p p p b ^.0 a /.0 (._.4 /.p p p p p p 0 :.<.' ' 2 2 2 2 2 , , ' T - =                         ",
"              [.}.h *.p }.|., -.f p p p /.1.| L L 2.X ....3.f p p p p p ].4.J ).5.6.O O (.7.' ' ' ' 8.9.0.                      ",
"              [.}.h t ].p a.b.a.f p p p {.h , , '.2 , ' ' c.6.f p p p p p d.e./.a p p f.3 g.' ' ' ' ' ' h.i.                    ",
"              [.}.M , j.f p f p p p 0 } g ' ' 2 a.k.' ' ' ' l.6.p p 0 m.m.0 f p p p 0 Y h ' ' ' ' ' ' ' ' n.i.                  ",
"              [.m.{.> _.f p p p p p 0 r ' ' ' 2 o.4 h h > ' ' z o.0 p.l.l.X f p p p p 0 q.2 ' ' ' ' ' ' ' ' r.                  ",
"              s.t.0 {.d.f p p p p p 0 r ' ' ' , Q a E E u.v.l.l.w.} ..' ' t E p p p p p C '.l.4., ' ' ' ' ' x.+                 ",
"              @ y.f 0 0 p p p p p p 0 } g ' ' ' J z.f p p e m.0 A.c 4 M ' ' r }.p p p p p u.3 3 n t ' ' ' ' > B.                ",
"                @ C.D.D.E.F.p p p p p p W +.w.g L 4 p p p p p p 6.c f D g g , D }.p p p (.l.' , A l.' ' ' ' ) B.                ",
"                          C.F.p p p p p f f Z (.C p p p p p p p 6.>.G.=.(.O n ..q e p ` 4.' ' M , ' ' ' ' ' T ]                 ",
"                            C.H.p p p p p p p p p p p p p p p p ].l.P  .p p e a a p p Z M ' @.W r , ' ' ' ' u @                 ",
"                              I.E.E.E.y.H.p p p p p p p p p p p p 6.S X  .p p p p p p Z M ' @.1.a.@.' ' ' ' J.#                 ",
"                                        I.H.p p p p p p p p F.y.K.p f u.a p p p p p p 0 L.;.J 1.o M.:.#.N.> ) O.                ",
"                                          I.P.P.Q.p p p p F.E.R.S.p p p p p p p p p p p p /.}.m.p p p 0 E Y ; B.                ",
"                                                T.U.[.[.[.E.    T.S.p p p p p p p p p p p p p p p p p p p f 7.B.                ",
"                                                                  T.V.p p p p p p p [.W.F.p p p p p p p p p ~.8                 ",
"                                                                    T.V.K.p p p p [.R.  I.H.p p p p p p p X.R.                  ",
"                                                                      R.Y.V.V.Z.X.R.      `.S.S.p p p p X.R.                    ",
"                                                                                               +y..+.+y. +                      ",
"                                                                                                                                ",
"                                                                                                                                ",
"                                                                                                                                ",
"                                                                                                                                ",
"                                                                                                                                ",
"                                                                                                                                ",
"                                                                                                                                ",
"                                                                                                                                ",
"                                                                                                                                ",
"                                                                                                                                ",
"                                                                                                                                ",
"                                                                                                                                ",
"                                                                                                                                ",
"                                                                                                                                ",
"                                                                                                                                ",
"                                                                                                                                "};
