/* XPM */
static char *ba60ca07f5224d49e0d328987673ccf7ONQMcK94Xx4DY3ZW[] = {
/* columns rows colors chars-per-pixel */
"64 64 41 1 ",
"  c None",
". c #3D253B",
"X c #3E263C",
"o c #413D5F",
"O c #453C5C",
"+ c #474367",
"@ c #434A71",
"# c #444A70",
"$ c #454A71",
"% c #484E76",
"& c #4C527C",
"* c #695367",
"= c #7E697C",
"- c #7F6A7D",
"; c #3E6091",
": c #435886",
"> c #465C8B",
", c #485C8C",
"< c #4B6091",
"1 c #4F6497",
"2 c #44669B",
"3 c #43679C",
"4 c #54699D",
"5 c #486BA1",
"6 c #4A6EA5",
"7 c #496EA6",
"8 c #4C6FA7",
"9 c #4E72AC",
"0 c #5277B2",
"q c #577BB7",
"w c #5B7FBD",
"e c #877485",
"r c #5C80BD",
"t c #9B8799",
"y c #A491A2",
"u c #AC9BAA",
"i c #B7A4B6",
"p c #BFAFBF",
"a c #C4B4C3",
"s c #C9B9C7",
"d c #D1C2CF",
/* pixels */
"                                                                ",
"       XX                                                       ",
"      $ww$            &44&                                      ",
"      4<<4           X4114X                                     ",
"                                                                ",
"                                                                ",
"                                                                ",
"      @4wO            @ww%                                      ",
"     +>qw<           &9ww0X                                     ",
"                                                                ",
"                                                                ",
"                                                                ",
"      @00@            o@@o                                      ",
"     +0880+           ,33,                                      ",
"      6  6            6  6                                      ",
"                                                                ",
"                                                                ",
"       XX                              XX                       ",
"      $ww$            &44&            $ww$            &44&      ",
"      &<oo            @<<@            oo<&            @<<@      ",
"                                                                ",
"                                                                ",
"                                                                ",
"      @ww%            @4wO            @ww%            @4wO      ",
"     Xw0w@           +>9wo           Xq0wX            <9wX      ",
"                                                                ",
"                                                                ",
"                                                                ",
"      @00@            o@@o            @00@            o@@o      ",
"     X6880+           ,33,           +0886X           ,33,      ",
"      $$                                $$                      ",
"                                                                ",
"                                                                ",
"       XX              XX                                       ",
"      =dd=            $ww$                                      ",
"      uyyu            4<<4                                      ",
"                                                                ",
"                                                                ",
"                                                                ",
"     XsuuX           X044X                                      ",
"     .adsX           .9w0X                                      ",
"                                                                ",
"                                                                ",
"                                                                ",
"      *==*            o@@o                                      ",
"     etiite          &:33:&                                     ",
"      p  p            6  6                                      ",
"                                                                ",
"                                                                ",
"                                                                ",
"      &44&             XX             o@@o                      ",
"      @90%          Xq5445qX         &:88:&                     ",
"                                                                ",
"                                                                ",
"                                                                ",
"        o@@o                                                    ",
"      X6333o            X@ww%           X@ww&                   ",
"                                                                ",
"                                                                ",
"                                                                ",
"                                                                ",
"    &ww%1%         o@@o            @00@                         ",
"      $6Xr          ;;26rr          ;;26rr                      ",
"                                                                "
};
