/* XPM */
static char *_c03db68c0c64495e525c58ba7db0994fmD2VcDU73vEd7iT[] = {
/* columns rows colors chars-per-pixel */
"64 64 229 2 ",
"   c None",
".  c #000000",
"X  c #060209",
"o  c #09020E",
"O  c #0D0416",
"+  c #0F0719",
"@  c #110410",
"#  c #1A0616",
"$  c #12051C",
"%  c #110A1E",
"&  c #1B0B1C",
"*  c #110814",
"=  c #23081E",
"-  c #250718",
";  c #310B17",
":  c #3C091D",
">  c #33081F",
",  c #2E141E",
"<  c #160623",
"1  c #180E2A",
"2  c #150A23",
"3  c #1B1030",
"4  c #260922",
"5  c #290922",
"6  c #250722",
"7  c #360C20",
"8  c #2B142C",
"9  c #231226",
"0  c #331324",
"q  c #371A29",
"w  c #321C33",
"e  c #480F17",
"r  c #440C1C",
"t  c #490E1C",
"y  c #420A17",
"u  c #560D18",
"i  c #49101C",
"p  c #5F1417",
"a  c #54121C",
"s  c #591A1D",
"d  c #620F17",
"f  c #720F13",
"g  c #661217",
"h  c #6B1617",
"j  c #741917",
"k  c #7D1A16",
"l  c #781715",
"z  c #6F241C",
"x  c #451B23",
"c  c #551B24",
"v  c #582828",
"b  c #492B39",
"n  c #54323C",
"m  c #502831",
"M  c #6A2B28",
"N  c #7E2E2A",
"B  c #752322",
"V  c #743629",
"C  c #6A3535",
"Z  c #69302A",
"A  c #74433D",
"S  c #583943",
"D  c #603943",
"F  c #65424B",
"G  c #764948",
"H  c #6A4C54",
"J  c #96190E",
"K  c #9C1D0E",
"L  c #91150E",
"P  c #821311",
"I  c #861912",
"U  c #8C1D11",
"Y  c #931D11",
"T  c #9B1F10",
"R  c #A11E0E",
"E  c #A21F10",
"W  c #872A1A",
"Q  c #9D2211",
"!  c #972616",
"~  c #9A3B18",
"^  c #A5220E",
"/  c #AC240E",
"(  c #B2250E",
")  c #BB270E",
"_  c #BC290E",
"`  c #B5280E",
"'  c #A52311",
"]  c #AC2610",
"[  c #A62C13",
"{  c #AA2B14",
"}  c #A22D1A",
"|  c #B42A12",
" . c #B92D14",
".. c #AB3217",
"X. c #B5331A",
"o. c #B93718",
"O. c #812F2B",
"+. c #84322B",
"@. c #89362C",
"#. c #8E392D",
"$. c #943D2E",
"%. c #973427",
"&. c #913F30",
"*. c #863B32",
"=. c #BB3B23",
"-. c #A73823",
";. c #C22C0E",
":. c #C92F0E",
">. c #CD370E",
",. c #D63B0E",
"<. c #D1340E",
"1. c #C02D11",
"2. c #C63818",
"3. c #D43C14",
"4. c #C73F25",
"5. c #B8461E",
"6. c #B6411C",
"7. c #A1461E",
"8. c #9C442F",
"9. c #864539",
"0. c #994734",
"q. c #A34829",
"w. c #A34C31",
"e. c #A94C32",
"r. c #A64633",
"t. c #AB5333",
"y. c #AB573A",
"u. c #B45633",
"i. c #B75B35",
"p. c #AE4F27",
"a. c #BD6233",
"s. c #B5623C",
"d. c #BF6838",
"f. c #DB480E",
"g. c #DB430E",
"h. c #C6481C",
"j. c #D84618",
"k. c #D35614",
"l. c #E6540E",
"z. c #EA580F",
"x. c #E45214",
"c. c #E75817",
"v. c #E14A11",
"b. c #EE6618",
"n. c #CB4626",
"m. c #D64C2B",
"M. c #C75826",
"N. c #CD5925",
"B. c #D85626",
"V. c #C24C34",
"C. c #DD5A34",
"Z. c #E2592B",
"A. c #CB6029",
"S. c #DA6D2E",
"D. c #D96629",
"F. c #C26436",
"G. c #CB6D36",
"H. c #C56A39",
"J. c #DA6636",
"K. c #CF733B",
"L. c #DC7934",
"P. c #DC7D3A",
"I. c #D3763A",
"U. c #E76528",
"Y. c #EA732A",
"T. c #F37D2C",
"R. c #F27429",
"E. c #E26A36",
"W. c #E77838",
"Q. c #F27732",
"!. c #D8601B",
"~. c #995948",
"^. c #835A59",
"/. c #87534E",
"(. c #A75C48",
"). c #B25E46",
"_. c #986157",
"`. c #B86745",
"'. c #A56A56",
"]. c #B16C53",
"[. c #986561",
"{. c #9F7771",
"}. c #AF7D6C",
"|. c #C95E44",
" X c #D4684B",
".X c #CB7542",
"XX c #C77543",
"oX c #D67A47",
"OX c #D0775F",
"+X c #E67E44",
"@X c #E6754D",
"#X c #C07E6C",
"$X c #DE8039",
"%X c #E4843B",
"&X c #E7893C",
"*X c #EE813A",
"=X c #F3883C",
"-X c #F78B39",
";X c #DD8343",
":X c #D7874B",
">X c #E58A42",
",X c #EA8D43",
"<X c #E38E4A",
"1X c #EC8445",
"2X c #F38947",
"3X c #ED9347",
"4X c #EB934B",
"5X c #E6944E",
"6X c #F89441",
"7X c #F1994C",
"8X c #F39448",
"9X c #ED9C52",
"0X c #E99258",
"qX c #F29D53",
"wX c #F49357",
"eX c #EC855E",
"rX c #F5A252",
"tX c #FDAB55",
"yX c #F3A559",
"uX c #F9AA58",
"iX c #F1A253",
"pX c #DB8469",
"aX c #CC8A71",
"sX c #EC956D",
"dX c #F5A769",
"fX c #F6A572",
"gX c #D9A893",
"hX c #F6B994",
"jX c #F1AF88",
/* pixels */
". . . . . . . . . . . . . . . . . . . . . . X o O < < < < < < < < < < < < < < O o X . . . . . . . . . . . . . . . . . . . . . . ",
". . . . . . . . . . . . . . . . . . . . . . X o O < < < < < < < < < < < < < < O o X . . . . . . . . . . . . . . . . . . . . . . ",
". . . . . . . . . . . . . . . . . . . . . X X * & 9 8 8 8 8 8 8 8 8 8 8 8 9 4 & @ X X . . . . . . . . . . . . . . . . . . . . . ",
". . . . . . . . . . . . . . . . . . . X X o * 9 w b b b b m m n n S S n m m q , & @ o X X . . . . . . . . . . . . . . . . . . . ",
". . . . . . . . . . . . . . . . . . . X o O & w b F H G G A A G /.^.^.G A C v x , & O o X . . . . . . . . . . . . . . . . . . . ",
". . . . . . . . . . . . . . . . . . X o O $ 9 b F ^.[._.~.~.~.'.'.}.}.'.~.9.V v q 4 $ O X . . . . . . . . . . . . . . . . . . . ",
". . . . . . . . . . . . . . . . . . X o O $ 9 b F ^.[._.(.(.).].].aX}.'.~.9.V v q 4 $ O X X . . . . . . . . . . . . . . . . . . ",
". . . . . . . . . . . . . . . . . . . X o O & w b F G /.0.w.e.y.).`.).~.9.C v x , & O o X . . . . . . . . . . . . . . . . . . . ",
". . . . . . . . . . . . . . . . . . . X X X * 9 w b n C +.%.-.q.r.e.r.*.Z v q , & @ o X X . . . . . . . . . . . . . . . . . . . ",
". . . . . . . . . . . . . . . . . . . . . X X * & 9 q c B ! ! } } } ! B c 0 4 & @ X X . . . . . . . . . . . . . . . . . . . . . ",
". . . . . . . . . . . . . . . . . . . . . . X o O < 5 i j ! [ { ..-.%.B c 5 < O o X . . . . . . . . . . . . . . . . . . . . . . ",
". . . . . . . . . . . . . . . . . . . . . . X o O < 5 s k [ o.5.u.).(.9.m 8 < O o X . . . . . . . . . . . . . . . . . . . . . . ",
". . . . . . . . . . . . . . . . . . . . . . X o O < 5 s W o.k.J.oXpX#X_.D 8 < O o X . . . . . . . . . . . . . . . . . . . . . . ",
". . . . . . . . . . . . . . . . . . . . . . X o O $ 0 z ~ h.U.+XsXjXgX{.H w < O o X . . . . . . . . . . . . . . . . . . . . . . ",
". . . . . . . . . . . . . . . . . . . . . . X o O < 0 z ~ k.R.2XfXhXgX{.H w $ O o X . . . . . . . . . . . . . . . . . . . . . . ",
". . . . . . . . . . . . . . . . . . . . . . X o O < 0 M 7.!.R.1XwXfXaX[.F w $ O o X . . . . . . . . . . . . . . . . . . . . . . ",
". . . . . . . . . . . . . . . . . . . . . . X o O < 0 Z q.D.T.Q.1XeXOX~.C 8 < O o X . . . . . . . . . . . . . . . . . . . . . . ",
". . . . . . . . . . . . . . . . . . . . . . X o O < 0 Z p.Y.-XQ.W.@X|.0.Z 8 < O o X . . . . . . . . . . . . . . . . . . . . . . ",
". . . . . . . . . . . . . . . . . . . . . X X @ # = x V p.S.R.Y.E.C.V.$.M 7 = # @ X X . . . . . . . . . . . . . . . . . . . . . ",
". . . . . . . . . . . . . . . . . . . X X o @ - ; r s W 7.M.B.N.m.n.=.%.B s r ; - @ o X X . . . . . . . . . . . . . . . . . . . ",
". . . . . . . . . . . . . . . . . . . X o O # ; e p j W } 6.h.5.o.X...! W l p e ; # O o X . . . . . . . . . . . . . . . . . . . ",
". . . . . . . . . . . . . . . . . . X o O $ = r p k Y ! Q [ { [ [ [ ' Q ! U k g r = $ O o X . . . . . . . . . . . . . . . . . . ",
". . . . . . . . . . . . . . . . . X X @ # = > a j Y ^ ^ ^ ^ ^ ' ' ' ' ' ' ^ Y j a 7 = # @ X X . . . . . . . . . . . . . . . . . ",
". . . . . . . . . . . . . . . X X o @ - ; r a h I Q / / / | | | X.X.X.X.{ ] T I h a r ; - @ o X X . . . . . . . . . . . . . . . ",
". . . . . . . . . . . . . . . X o O # ; e p j I Y ^ ( ` _ ;.1.2.2.n.n.o.X.| / Y I j p e ; # O o X . . . . . . . . . . . . . . . ",
". . . . . . . . . . . . . . X o O $ = r p k Y Q ^ ( ) ;.:.<.3.j.m.m.m.n.2. .( ^ Q Y k p r = $ O o X . . . . . . . . . . . . . . ",
". . . . . . . . . . . . . X X @ # = 7 a j Y ^ / ( ) ;.:.<.,.3.j.B.Z.C.m.n.4.=.X.{ ' Y j a 7 = # @ X X . . . . . . . . . . . . . ",
". . . . . . . . . . . X X o @ # ; : a h I T / ( _ ;.:.>.,.g.v.x.c.Z.Z.C. X X|.V.=.{ T I h a : ; # @ o X X . . . . . . . . . . . ",
". . . . . . . . . . . X o O # ; y u h k Y ^ ( _ ;.:.<.,.g.v.x.x.c.c.U.@X@XpXpX XV.X.^ Y k h u y ; # O o X . . . . . . . . . . . ",
". . . . . . . . . . X o O $ = : u f P Y R ( ) ;.:.<.,.g.v.l.z.z.z.z.U.1XsXjXjXpX|.=.( R J P f u : = $ O o X . . . . . . . . . . ",
". . . . . . . . . . X o O < 6 r d P J E ]  .2.2.3.j.j.x.c.b.b.b.b.b.R.2XfXhXhXsX Xn. .] E J P d r 4 < O o X . . . . . . . . . . ",
". . . . . . . . . . X o O < 6 r g P T { o.h.h.B.B.B.U.U.Y.T.T.T.T.T.=X7XdXjXjXsXoXN.h.o.{ T P g t 4 < O o X . . . . . . . . . . ",
". . . . . . . . . . X o O < 4 t g I Q ..5.N.D.S.E.W.W.*X=X-X6X6X6X6X8XqXdXdXdX0X+XS.N.5...Q I g t 4 < O o X . . . . . . . . . . ",
". . . . . . . . . . X o O < 4 t h U [ 6.M.S.W.%X>X,X8X7XrXtXtXtXtXtXtXuXyXyXqX4X>XW.S.M.6.[ U h t 4 < O o X . . . . . . . . . . ",
". . . . . . . . . . X o O $ 5 i h U [ 5.A.L.%X>X>X<X5X9X9XyXuXuXuXuXuXyXqX4X4X,X>X&XL.A.5.[ U h i 5 < O o X . . . . . . . . . . ",
". . . . . . . . . . X o O < 5 i h U [ 5.A.L.%XP.I.XXXXoX:X<X5X9X9XrXrX4X<X;X;X;X%X%XL.A.5.[ U h i 5 < O o X . . . . . . . . . . ",
". . . . . . . . . . X o O < 5 i h U [ 5.A.L.$XK.d.i.y.s.H.XXoX;X<X3X3X>XoXK.K.I.P.%XL.A.5.[ U h i 5 < O o X . . . . . . . . . . ",
". . . . . . . . . . X o O < 5 i h U [ 5.A.L.P.H.t.8.&.0.t.i.H.K.P.&X&XP.G.F.F.G.I.%XL.A.5.[ U h i 5 $ O o X . . . . . . . . . . ",
". . . . . . . . . . X o O < 5 i h U [ 5.A.L.L.F.t.#.@.$.8.e.u.a.G.I.I.G.a.u.u.F.K.P.L.A.5.[ U h i 5 < O o X . . . . . . . . . . ",
". . . . . . . . . . X o O < 5 i h U [ 5.A.L.P.H.u.8.$.$.8.8.w.t.u.a.a.u.t.w.e.i.G.P.L.A.5.[ U h i 5 < O o X . . . . . . . . . . ",
". . . . . . . . . . X o O < 5 i h U [ 5.A.L.P.G.i.e.8.8.$.$.$.8.8.w.w.8.8.$.8.u.H.P.L.A.5.[ U h i 5 < O o X . . . . . . . . . . ",
". . . . . . . . . . X o O < 5 i h U [ 5.A.L.P.K.F.u.e.8.$.@.+.+.@.@.@.@.+.+.$.t.F.L.L.A.5.[ U h i 5 < O o X . . . . . . . . . . ",
". . . . . . . . . . X o O $ 5 i h U [ 5.A.L.%XI.G.F.u.w.$.+.N N O.+.+.O.N N @.w.a.L.L.A.5.[ U h i 5 < O o X . . . . . . . . . . ",
". . . . . . . . . . X o O < 5 i h U [ 5.A.L.%XP.I.K.H.y.8.@.N +.@.#.#.@.+.N @.w.a.L.L.A.5.[ U h i 5 < O o X . . . . . . . . . . ",
". . . . . . . . . . X o O < 5 i h U [ 5.A.L.%X%X;X;X.Xs.w.@.O.@.$.8.8.$.@.O.@.w.a.L.L.A.5.[ U h i 5 < O o X . . . . . . . . . . ",
". . . . . . . . . . X o O < 5 i h U [ 5.A.L.&X>X,X4X;XH.t.@.+.#.8.e.e.8.#.+.@.w.a.L.L.A.5.[ U h i 5 $ O o X . . . . . . . . . . ",
". . . . . . . . . . X o O < 5 i h U [ 5.A.L.&X,X3X7X<X.Xs.0.0.0.y.i.i.t.0.&.8.t.H.P.L.A.5.[ U h i 5 < O o X . . . . . . . . . . ",
". . . . . . . . . . X o O < 5 i h U [ 5.A.L.&X,X3X7X4X:XXX`.s.`.XX.X.XH.s.y.y.d.K.$XL.A.5.[ U h i 5 < O o X . . . . . . . . . . ",
". . . . . . . . . . X o O $ 5 i h U [ 5.A.L.&X,X3X7X9X5X:X:X:X:X:X<X<X:XoXXXXXI.P.%XL.A.5.[ U h i 5 < O o X . . . . . . . . . . ",
". . . . . . . . . . X o O $ 5 i h U [ 5.A.L.&X,X3X7XqXqXrXiXyXyXyXuXyX9X9X5X<X>X>X%XL.A.5.[ U h i 5 < O o X . . . . . . . . . . ",
". . . . . . . . . . X o O < 5 i h U [ 6.M.S.W.%X>X,X8X7XrXtXtXtXtXtXtXrX7X7X3X,X%XW.S.M.6.[ U h i 5 < O o X . . . . . . . . . . ",
". . . . . . . . . . X o O < 5 i h U [ X.h.N.D.S.E.W.W.*X=X-X6X6X6X6X6X2X,X1X+XW.S.D.N.h.X.[ U h i 5 < O o X . . . . . . . . . . ",
". . . . . . . . . . X o O < 5 i h U ' ..o.h.h.B.B.B.U.U.Y.T.T.T.T.T.T.Q.W.W.E.J.B.n.h.o...' U h i 5 < O o X . . . . . . . . . . ",
". . . . . . . . . . X o O < 5 i h U ^ ] |  .2.2.3.j.j.x.c.b.b.b.b.b.b.U.U.E.C.m.n.2. .| ] ^ U h i 5 < O o X . . . . . . . . . . ",
". . . . . . . . . . X o O < 4 t h U K ^ / ( ) ;.:.<.,.g.f.l.l.l.l.l.x.c.Z.C.m.n.2. .( / ^ K U h t 4 $ O o X . . . . . . . . . . ",
". . . . . . . . . . X o O < 4 t g I K R ^ / ( _ ;.:.>.,.,.g.f.f.f.f.f.j.n.m.n.2.o.| / ^ R K I h t 4 $ O o X . . . . . . . . . . ",
". . . . . . . . . . X o O < 4 t g P J K R ^ / ( _ ;.:.:.>.>.>.>.>.>.>.2.2.2.2.o.| ] ^ R K J P g t 4 < O o X . . . . . . . . . . ",
". . . . . . . . . . X o O < 4 r d P L J K K ^ / ( ) _ ;.;.;.;.;.;.;.;.1.1.1. .| ] ^ K K J L P d r 4 < O o X . . . . . . . . . . ",
". . . . . . . . X X X O O < 4 r u f P P U U Y Y Q ' ' ' ' ' ' ' ' ' ' ' ' ' ' Q Y Y U I P P f u r 4 < O O X X X . . . . . . . . ",
". . . . . . . X X O O O $ < 6 : t u d g g h h j j k k k k k k k k k k k k k k l j h h g g d u t : 6 < $ O O O X X . . . . . . . ",
". . . . . . X X O + % % 2     > : r r t t t i i a a a a a a a a a a a a a a a a i i t t t r r : >     2 % % + O X X . . . . . . ",
". . . . . . X O + 2 1 1         6 4 4 4 4 4 5 5 5 5 5 5 5 5 5 5 5 5 5 5 5 5 5 5 5 5 4 4 4 4 4 6         1 1 2 + O X . . . . . . ",
". . . . . . X O % 1 3 3         < < < < < < < < < < < < < < < < < < < < < < < < < < < < < < < <         3 3 1 % O X . . . . . . ",
". . . . . . X O % 1 3 3         < < < < < < < < < < < < < < < < < < < < < < < < < < < < < < < <         3 3 1 % O X . . . . . . "
};
